<?xml version="1.0" encoding="utf-8"?>
<!-- Generator: Adobe Illustrator 19.2.1, SVG Export Plug-In . SVG Version: 6.00 Build 0)  -->
<svg version="1.1" id="Capa_1" xmlns="http://www.w3.org/2000/svg" xmlns:xlink="http://www.w3.org/1999/xlink" x="0px" y="0px"
	 viewBox="0 0 704.3 207" style="enable-background:new 0 0 704.3 207;" xml:space="preserve">
<style type="text/css">
	.st0{display:none;}
	.st1{display:inline;}
	.st2{font-family:'BrutalType-Black';}
	.st3{font-size:30.0926px;}
	.st4{font-size:30px;}
	.st5{font-family:'BrutalType-Thin';}
	.st6{font-family:'BebasNeue';}
	.st7{font-size:10px;}
</style>
<g id="logo_TEXTO" class="st0">
	<text transform="matrix(1 0 0 1 519.5833 120.3337)" class="st1 st2 st3">I</text>
	<text transform="matrix(1 0 0 1 529.9046 120.3337)" class="st1 st2 st4">T</text>
	<text transform="matrix(1 0 0 1 547.125 120.8219)" class="st1 st5 st4">D</text>
	<text transform="matrix(1 0 0 1 567.0752 120.8219)" class="st1 st5 st4">E</text>
	<text transform="matrix(1 0 0 1 584.1142 120.8219)" class="st1 st5 st4">P</text>
	<text transform="matrix(1 0 0 1 601.1543 120.8219)" class="st1 st5 st4">A</text>
	<text transform="matrix(1 0 0 1 620.6543 120.8219)" class="st1 st5 st4">R</text>
	<text transform="matrix(1 0 0 1 639.5537 120.8219)" class="st1 st5 st4">T</text>
	<text transform="matrix(1 0 0 1 655.7539 120.8219)" class="st1 st5 st4">M</text>
	<text transform="matrix(1 0 0 1 679.3935 120.8219)" class="st1 st5 st4">E</text>
	<text transform="matrix(1 0 0 1 696.4336 120.8219)" class="st1 st5 st4">N</text>
	<text transform="matrix(1 0 0 1 716.833 120.8219)" class="st1 st5 st4">T</text>
	<text transform="matrix(1 0 0 1 522.5833 129.3333)" class="st1 st6 st7">I</text>
	<text transform="matrix(1 0 0 1 524.9031 129.3333)" class="st1 st6 st7">N</text>
	<text transform="matrix(1 0 0 1 529.5931 129.3333)" class="st1 st6 st7">S</text>
	<text transform="matrix(1 0 0 1 533.7527 129.3333)" class="st1 st6 st7">T</text>
	<text transform="matrix(1 0 0 1 537.7327 129.3333)" class="st1 st6 st7">I</text>
	<text transform="matrix(1 0 0 1 540.0525 129.3333)" class="st1 st6 st7">T</text>
	<text transform="matrix(1 0 0 1 544.0325 129.3333)" class="st1 st6 st7">U</text>
	<text transform="matrix(1 0 0 1 548.4324 129.3333)" class="st1 st6 st7">T</text>
	<text transform="matrix(1 0 0 1 552.4129 129.3333)" class="st1 st6 st7"> </text>
	<text transform="matrix(1 0 0 1 554.3826 129.3333)" class="st1 st6 st7">D</text>
	<text transform="matrix(1 0 0 1 558.8826 129.3333)" class="st1 st6 st7">E</text>
	<text transform="matrix(1 0 0 1 562.9822 129.3333)" class="st1 st6 st7"> </text>
	<text transform="matrix(1 0 0 1 564.952 129.3333)" class="st1 st6 st7">C</text>
	<text transform="matrix(1 0 0 1 569.2322 129.3333)" class="st1 st6 st7">I</text>
	<text transform="matrix(1 0 0 1 571.5516 129.3333)" class="st1 st6 st7">È</text>
	<text transform="matrix(1 0 0 1 575.6521 129.3333)" class="st1 st6 st7">N</text>
	<text transform="matrix(1 0 0 1 580.3416 129.3333)" class="st1 st6 st7">C</text>
	<text transform="matrix(1 0 0 1 584.6219 129.3333)" class="st1 st6 st7">I</text>
	<text transform="matrix(1 0 0 1 586.9412 129.3333)" class="st1 st6 st7">A</text>
	<text transform="matrix(1 0 0 1 591.4314 129.3333)" class="st1 st6 st7"> </text>
	<text transform="matrix(1 0 0 1 593.4012 129.3333)" class="st1 st6 st7">D</text>
	<text transform="matrix(1 0 0 1 597.9012 129.3333)" class="st1 st6 st7">E</text>
	<text transform="matrix(1 0 0 1 602.0019 129.3333)" class="st1 st6 st7"> </text>
	<text transform="matrix(1 0 0 1 603.9715 129.3333)" class="st1 st6 st7">M</text>
	<text transform="matrix(1 0 0 1 609.8016 129.3333)" class="st1 st6 st7">A</text>
	<text transform="matrix(1 0 0 1 613.9109 129.3333)" class="st1 st6 st7">T</text>
	<text transform="matrix(1 0 0 1 617.8914 129.3333)" class="st1 st6 st7">E</text>
	<text transform="matrix(1 0 0 1 621.9911 129.3333)" class="st1 st6 st7">R</text>
	<text transform="matrix(1 0 0 1 626.4314 129.3333)" class="st1 st6 st7">I</text>
	<text transform="matrix(1 0 0 1 628.7508 129.3333)" class="st1 st6 st7">A</text>
	<text transform="matrix(1 0 0 1 633.2411 129.3333)" class="st1 st6 st7">L</text>
	<text transform="matrix(1 0 0 1 637.0506 129.3333)" class="st1 st6 st7">S</text>
	<text transform="matrix(1 0 0 1 641.2107 129.3333)" class="st1 st6 st7"> </text>
	<text transform="matrix(1 0 0 1 643.1805 129.3333)" class="st1 st6 st7">D</text>
	<text transform="matrix(1 0 0 1 647.6805 129.3333)" class="st1 st6 st7">E</text>
	<text transform="matrix(1 0 0 1 651.7801 129.3333)" class="st1 st6 st7"> </text>
	<text transform="matrix(1 0 0 1 653.7508 129.3333)" class="st1 st6 st7">B</text>
	<text transform="matrix(1 0 0 1 658.2303 129.3333)" class="st1 st6 st7">A</text>
	<text transform="matrix(1 0 0 1 662.7205 129.3333)" class="st1 st6 st7">R</text>
	<text transform="matrix(1 0 0 1 667.16 129.3333)" class="st1 st6 st7">C</text>
	<text transform="matrix(1 0 0 1 671.4402 129.3333)" class="st1 st6 st7">E</text>
	<text transform="matrix(1 0 0 1 675.5398 129.3333)" class="st1 st6 st7">L</text>
	<text transform="matrix(1 0 0 1 679.3504 129.3333)" class="st1 st6 st7">O</text>
	<text transform="matrix(1 0 0 1 683.7303 129.3333)" class="st1 st6 st7">N</text>
	<text transform="matrix(1 0 0 1 688.4197 129.3333)" class="st1 st6 st7">A</text>
	<text transform="matrix(1 0 0 1 692.91 129.3333)" class="st1 st6 st7"> </text>
	<text transform="matrix(1 0 0 1 694.8796 129.3333)" class="st1 st6 st7">i</text>
	<text transform="matrix(1 0 0 1 697.2 129.3333)" class="st1 st6 st7">c</text>
	<text transform="matrix(1 0 0 1 701.4792 129.3333)" class="st1 st6 st7">m</text>
	<text transform="matrix(1 0 0 1 707.3094 129.3333)" class="st1 st6 st7">a</text>
	<text transform="matrix(1 0 0 1 711.7996 129.3333)" class="st1 st6 st7">b</text>
	<text transform="matrix(1 0 0 1 716.2791 129.3333)" class="st1 st6 st7">-</text>
	<text transform="matrix(1 0 0 1 719.3992 129.3333)" class="st1 st6 st7">c</text>
	<text transform="matrix(1 0 0 1 723.6794 129.3333)" class="st1 st6 st7">s</text>
	<text transform="matrix(1 0 0 1 727.8387 129.3333)" class="st1 st6 st7">i</text>
	<text transform="matrix(1 0 0 1 730.1589 129.3333)" class="st1 st6 st7">c</text>
	<text transform="matrix(1 0 0 1 734.4382 129.3333)" class="st1 st6 st7"> </text>
</g>
<g>
	<path d="M8.3,170.8V10.6h39.5v160.2H8.3z"/>
	<path d="M113,170.8V45.5H70.5V11.3H195v34.2h-42.5v125.3H113z"/>
</g>
<g>
	<path d="M228.3,54.8h-1.6V11.4h1.6V54.8z"/>
	<path d="M272.7,54.8h-1.6l-27.8-40.4l-0.2,0.1v40.4h-1.6V11.4h1.6l27.8,40.3l0.2-0.1V11.4h1.6V54.8z"/>
	<path d="M308.5,33.4h-22.2v21.3h-1.6V11.4h26.9V13h-25.3v18.8h22.2V33.4z"/>
	<path d="M350.3,36.3c0,5.9-1.5,10.5-4.4,13.9c-2.9,3.4-6.9,5.1-12,5.1c-5.1,0-9.1-1.7-12-5.1c-2.9-3.4-4.4-8.1-4.4-13.9v-6.5
		c0-5.8,1.4-10.5,4.3-13.9c2.9-3.4,6.9-5.2,12-5.2c5.1,0,9.1,1.7,12,5.2c2.9,3.4,4.4,8.1,4.4,13.9V36.3z M348.7,29.8
		c0-5.3-1.3-9.6-3.8-12.7c-2.6-3.1-6.2-4.7-10.9-4.7c-4.7,0-8.3,1.6-10.9,4.7c-2.5,3.1-3.8,7.4-3.8,12.7v6.6c0,5.4,1.3,9.6,3.8,12.8
		c2.6,3.1,6.2,4.7,10.9,4.7c4.7,0,8.4-1.6,10.9-4.7c2.5-3.1,3.8-7.4,3.8-12.8V29.8z"/>
	<path d="M361.7,34.4v20.4h-1.6V11.4h13.8c4.6,0,8.1,1,10.6,3c2.5,2,3.7,4.9,3.7,8.7c0,2.4-0.8,4.7-2.3,6.7c-1.6,2-3.7,3.3-6.4,3.9
		c3.1,0.5,5.4,1.7,6.7,3.4c1.4,1.7,2,4,2,6.7v4.1c0,1.4,0.2,2.6,0.5,3.6c0.3,1.1,0.9,1.9,1.6,2.6v0.7h-1.6c-0.7-0.8-1.3-1.8-1.6-3
		c-0.4-1.2-0.5-2.5-0.5-4v-4c0-2.9-1-5.2-3-6.9c-2-1.6-4.9-2.5-8.6-2.5H361.7z M361.7,32.8h11.9c4.4,0,7.7-0.9,9.8-2.8
		c2.1-1.9,3.1-4.2,3.1-7c0-3.2-1.1-5.7-3.2-7.4c-2.1-1.7-5.3-2.6-9.5-2.6h-12.2V32.8z"/>
	<path d="M402.5,11.4l17.8,40.8h0.2l17.8-40.8h2.4v43.4H439V14.2l-0.2-0.1L421,54.8h-1.3L402,14.4l-0.2,0.1v40.4h-1.6V11.4H402.5z"
		/>
	<path d="M476,41.8h-21.2l-4.8,13h-1.8l16.2-43.4h2l16.2,43.4h-1.8L476,41.8z M455.3,40.2h20l-9.1-24.4l-0.8-2.4h-0.2l-0.8,2.4
		L455.3,40.2z"/>
	<path d="M514.6,13h-15.8v41.8h-1.6V13h-15.8v-1.6h33.2V13z"/>
	<path d="M525,54.8h-1.6V11.4h1.6V54.8z"/>
	<path d="M568.9,36.3c0,5.9-1.5,10.5-4.4,13.9c-2.9,3.4-6.9,5.1-12,5.1c-5.1,0-9.1-1.7-12-5.1c-2.9-3.4-4.4-8.1-4.4-13.9v-6.5
		c0-5.8,1.4-10.5,4.3-13.9c2.9-3.4,6.9-5.2,12-5.2c5.1,0,9.1,1.7,12,5.2c2.9,3.4,4.4,8.1,4.4,13.9V36.3z M567.3,29.8
		c0-5.3-1.3-9.6-3.8-12.7c-2.6-3.1-6.2-4.7-10.9-4.7c-4.7,0-8.3,1.6-10.9,4.7c-2.5,3.1-3.8,7.4-3.8,12.7v6.6c0,5.4,1.3,9.6,3.8,12.8
		c2.6,3.1,6.2,4.7,10.9,4.7c4.7,0,8.4-1.6,10.9-4.7c2.5-3.1,3.8-7.4,3.8-12.8V29.8z"/>
	<path d="M610.1,54.8h-1.6l-27.8-40.4l-0.2,0.1v40.4h-1.6V11.4h1.6l27.8,40.3l0.2-0.1V11.4h1.6V54.8z"/>
	<path d="M254.4,71.4h-15.8v41.8H237V71.4h-15.8v-1.6h33.2V71.4z"/>
	<path d="M285.4,91.3h-21.8v20.2h24.8v1.6H262V69.8h26.4v1.6h-24.8v18.4h21.8V91.3z"/>
	<path d="M325.8,99.9l0.1,0.2c0.1,4.5-1.3,7.9-4,10.2c-2.8,2.4-6.4,3.5-11,3.5c-4.8,0-8.6-1.8-11.4-5.3c-2.9-3.5-4.3-8.1-4.3-13.8
		v-6.5c0-5.7,1.4-10.3,4.3-13.8c2.9-3.5,6.7-5.3,11.4-5.3c4.5,0,8.2,1.2,11,3.5c2.8,2.4,4.1,5.7,4,10.1l-0.1,0.2h-1.4
		c0-3.9-1.2-6.9-3.7-9.1c-2.4-2.1-5.7-3.2-9.9-3.2c-4.2,0-7.6,1.6-10.2,4.8c-2.6,3.2-3.9,7.4-3.9,12.6v6.6c0,5.3,1.3,9.5,3.9,12.7
		c2.6,3.2,6,4.8,10.2,4.8c4.2,0,7.5-1,9.9-3.1c2.4-2,3.7-5.1,3.7-9.2H325.8z"/>
	<path d="M367.3,113.2h-1.6V92.4H338v20.7h-1.6V69.8h1.6v21.1h27.7V69.8h1.6V113.2z"/>
	<path d="M410.5,113.2h-1.6L381,72.7l-0.2,0.1v40.4h-1.6V69.8h1.6l27.8,40.3l0.2-0.1V69.8h1.6V113.2z"/>
	<path d="M453.2,94.7c0,5.9-1.5,10.5-4.4,13.9c-2.9,3.4-6.9,5.1-12,5.1c-5.1,0-9.1-1.7-12-5.1c-2.9-3.4-4.4-8.1-4.4-13.9v-6.5
		c0-5.8,1.4-10.5,4.3-13.9c2.9-3.4,6.9-5.2,12-5.2c5.1,0,9.1,1.7,12,5.2c2.9,3.4,4.4,8.1,4.4,13.9V94.7z M451.6,88.1
		c0-5.3-1.3-9.6-3.8-12.7c-2.6-3.1-6.2-4.7-10.9-4.7c-4.7,0-8.3,1.6-10.9,4.7c-2.5,3.1-3.8,7.4-3.8,12.7v6.6c0,5.4,1.3,9.6,3.8,12.8
		c2.6,3.1,6.2,4.7,10.9,4.7c4.7,0,8.4-1.6,10.9-4.7c2.5-3.1,3.8-7.4,3.8-12.8V88.1z"/>
	<path d="M464.7,111.6H487v1.6h-23.9V69.8h1.6V111.6z"/>
	<path d="M523.4,94.7c0,5.9-1.5,10.5-4.4,13.9c-2.9,3.4-6.9,5.1-12,5.1c-5.1,0-9.1-1.7-12-5.1c-2.9-3.4-4.4-8.1-4.4-13.9v-6.5
		c0-5.8,1.4-10.5,4.3-13.9c2.9-3.4,6.9-5.2,12-5.2c5.1,0,9.1,1.7,12,5.2c2.9,3.4,4.4,8.1,4.4,13.9V94.7z M521.8,88.1
		c0-5.3-1.3-9.6-3.8-12.7c-2.6-3.1-6.2-4.7-10.9-4.7c-4.7,0-8.3,1.6-10.9,4.7c-2.5,3.1-3.8,7.4-3.8,12.7v6.6c0,5.4,1.3,9.6,3.8,12.8
		c2.6,3.1,6.2,4.7,10.9,4.7c4.7,0,8.4-1.6,10.9-4.7c2.5-3.1,3.8-7.4,3.8-12.8V88.1z"/>
	<path d="M563.9,108.5c-0.9,1.3-2.7,2.5-5.3,3.6c-2.6,1.1-5.8,1.7-9.6,1.7c-5,0-9-1.8-12.1-5.3c-3.1-3.5-4.6-8.1-4.6-13.8v-7.1
		c0-5.4,1.5-9.9,4.5-13.3c3-3.4,6.9-5.1,11.7-5.1c4.6,0,8.2,1.2,10.9,3.6c2.7,2.4,4.1,5.4,4.1,9.2l-0.1,0.2h-1.3
		c-0.2-3.4-1.4-6.1-3.7-8.2c-2.3-2.1-5.6-3.1-9.9-3.1c-4.4,0-7.9,1.6-10.6,4.7c-2.7,3.1-4,7.2-4,12.1v7.2c0,5.2,1.4,9.4,4.1,12.6
		c2.8,3.2,6.4,4.9,11,4.9c3.2,0,6-0.5,8.4-1.4c2.4-0.9,4-1.9,4.8-3V95.1h-13.3v-1.6h14.9V108.5z"/>
	<path d="M586.7,93.9l0.8,1.5l0.8-1.5l14.4-24.1h2l-16.3,26.9v16.5h-1.6V96.7l-16.3-26.9h2L586.7,93.9z"/>
	<path d="M225.5,171.5v-43.4h12c5,0,9.2,1.8,12.7,5.4c3.5,3.6,5.2,8.1,5.2,13.7v5.3c0,5.6-1.7,10.1-5.2,13.7
		c-3.5,3.6-7.7,5.4-12.7,5.4H225.5z M227.1,129.7v40.2h10.4c4.5,0,8.4-1.6,11.5-4.9c3.2-3.3,4.8-7.5,4.8-12.5v-5.4
		c0-5-1.6-9.1-4.8-12.4c-3.2-3.3-7-4.9-11.5-4.9H227.1z"/>
	<path d="M288.9,149.7h-21.8v20.2h24.8v1.6h-26.4v-43.4h26.4v1.6h-24.8v18.4h21.8V149.7z"/>
	<path d="M301.9,152.9v18.6h-1.6v-43.4h13.6c4.5,0,8,1.1,10.4,3.4c2.4,2.3,3.6,5.3,3.6,9c0,3.8-1.2,6.8-3.6,9
		c-2.4,2.2-5.9,3.4-10.4,3.4H301.9z M301.9,151.3h12c4.1,0,7.2-1,9.3-3.1c2.1-2,3.1-4.6,3.1-7.7c0-3.1-1-5.7-3.1-7.8
		c-2.1-2-5.2-3.1-9.3-3.1h-12V151.3z"/>
	<path d="M355.7,158.6h-21.2l-4.8,13h-1.8l16.2-43.4h2l16.2,43.4h-1.8L355.7,158.6z M335,157h20l-9.1-24.4l-0.8-2.4H345l-0.8,2.4
		L335,157z"/>
	<path d="M370.7,151.2v20.4h-1.6v-43.4H383c4.6,0,8.1,1,10.6,3c2.5,2,3.7,4.9,3.7,8.7c0,2.4-0.8,4.7-2.3,6.7c-1.6,2-3.7,3.3-6.4,3.9
		c3.1,0.5,5.4,1.7,6.7,3.4c1.4,1.8,2,4,2,6.7v4.1c0,1.4,0.2,2.6,0.5,3.6c0.3,1.1,0.9,1.9,1.6,2.6v0.7h-1.6c-0.7-0.8-1.3-1.8-1.6-3
		c-0.4-1.2-0.5-2.5-0.5-4v-4c0-2.9-1-5.2-3-6.9c-2-1.6-4.9-2.5-8.6-2.5H370.7z M370.7,149.6h11.9c4.4,0,7.7-0.9,9.8-2.8
		c2.1-1.9,3.1-4.2,3.1-7c0-3.2-1.1-5.7-3.2-7.4c-2.1-1.7-5.3-2.6-9.5-2.6h-12.2V149.6z"/>
	<path d="M435.7,129.7h-15.8v41.8h-1.6v-41.8h-15.8v-1.6h33.2V129.7z"/>
	<path d="M445.6,128.1l17.8,40.8h0.2l17.8-40.8h2.4v43.4h-1.6V131l-0.2-0.1l-17.8,40.6h-1.3l-17.7-40.4l-0.2,0.1v40.4h-1.6v-43.4
		H445.6z"/>
	<path d="M519.1,149.7h-21.8v20.2h24.8v1.6h-26.4v-43.4h26.4v1.6h-24.8v18.4h21.8V149.7z"/>
	<path d="M561.7,171.5h-1.6l-27.8-40.4l-0.2,0.1v40.4h-1.6v-43.4h1.6l27.8,40.3l0.2-0.1v-40.3h1.6V171.5z"/>
	<path d="M601.7,129.7h-15.8v41.8h-1.6v-41.8h-15.8v-1.6h33.2V129.7z"/>
</g>
</svg>
